<?xml version="1.0" encoding="UTF-8" standalone="no"?>
<svg
   width="1391.3353"
   height="508.6496"
   viewBox="0 0 1043.5015 381.48719"
   version="1.2"
   id="svg67"
   sodipodi:docname="icon-icons_letters.svg"
   inkscape:export-filename="/home/carlos/Descargas/ICON-ICONS_new.png"
   inkscape:export-xdpi="96"
   inkscape:export-ydpi="96"
   inkscape:version="1.1.2 (0a00cf5339, 2022-02-04)"
   xmlns:inkscape="http://www.inkscape.org/namespaces/inkscape"
   xmlns:sodipodi="http://sodipodi.sourceforge.net/DTD/sodipodi-0.dtd"
   xmlns="http://www.w3.org/2000/svg"
   xmlns:svg="http://www.w3.org/2000/svg">
  <defs
     id="defs71" />
  <sodipodi:namedview
     id="namedview69"
     pagecolor="#ffffff"
     bordercolor="#666666"
     borderopacity="1.0"
     inkscape:pageshadow="2"
     inkscape:pageopacity="0.0"
     inkscape:pagecheckerboard="0"
     inkscape:document-units="pt"
     showgrid="false"
     fit-margin-top="5"
     fit-margin-bottom="5"
     fit-margin-right="5"
     fit-margin-left="5"
     height="512px"
     units="px"
     inkscape:zoom="0.2"
     inkscape:cx="1572.5"
     inkscape:cy="282.5"
     inkscape:window-width="1850"
     inkscape:window-height="1016"
     inkscape:window-x="70"
     inkscape:window-y="27"
     inkscape:window-maximized="1"
     inkscape:current-layer="svg67" />
  <g
     id="g860">
    <g
       id="g36764"
       transform="matrix(0.48400838,0,0,0.48400838,1.3299581,1.3299581)">
      <path
         style="fill:#26429e;fill-opacity:1;fill-rule:nonzero;stroke:none"
         d="m 507.0196,300.03129 c -1.418,-0.5899 -2.8477,-1.1602 -4.3008,-1.6914 1.4609,0.5312 2.8828,1.0898 4.3008,1.6914"
         id="path50" />
      <path
         style="fill:#26429e;fill-opacity:1;fill-rule:nonzero;stroke:none"
         d="m 515.2891,304.01949 c -1.3398,-0.7304 -2.6992,-1.4179 -4.0703,-2.0898 1.3711,0.6602 2.7305,1.3594 4.0703,2.0898"
         id="path52" />
      <path
         style="fill:#26429e;fill-opacity:1;fill-rule:nonzero;stroke:none"
         d="m 555.4805,346.19919 c -0.6719,-1.3789 -1.3594,-2.7382 -2.082,-4.0781 0.7226,1.3399 1.4219,2.6992 2.082,4.0781"
         id="path54" />
      <path
         style="fill:#26429e;fill-opacity:1;fill-rule:nonzero;stroke:none"
         d="m 559.0821,354.69139 c -0.543,-1.4414 -1.1133,-2.8828 -1.7031,-4.3008 0.6015,1.418 1.1601,2.8477 1.7031,4.3008"
         id="path56" />
      <path
         style="fill:#00ffbb;fill-opacity:1;fill-rule:nonzero;stroke:none"
         d="m 470.1797,194.76949 c -52.2695,0 -94.6406,-42.371 -94.6406,-94.6406 0,-52.2695 42.3711,-94.62889 94.6406,-94.62889 52.2696,0 94.6407,42.35939 94.6407,94.62889 0,52.2696 -42.3711,94.6406 -94.6407,94.6406"
         id="path62" />
      <path
         style="fill:#ff0044;fill-opacity:1;fill-rule:nonzero;stroke:none;stroke-opacity:0.5"
         d="m 105.461,768.96879 c -52.2695,0 -94.6406,-42.3672 -94.6406,-94.6407 0,-52.2695 42.3711,-94.6289 94.6406,-94.6289 52.2695,0 94.6289,42.3594 94.6289,94.6289 0,52.2735 -42.3594,94.6407 -94.6289,94.6407"
         id="path64" />
      <g
         id="g5299"
         style="fill:#00c3ff;fill-opacity:1;stroke:#00c3ff;stroke-opacity:1"
         transform="translate(-1714.8398,-955.57031)">
        <path
           style="fill:#00c3ff;fill-opacity:1;fill-rule:nonzero;stroke:#00c3ff;stroke-width:0;stroke-miterlimit:0;stroke-dasharray:none;stroke-opacity:1"
           d="m 2185.0195,1724.5391 c -52.2695,0 -94.6406,-42.3672 -94.6406,-94.6407 v -192.457 h 94.6406 c 26.1289,0 49.8008,-10.5898 66.9219,-27.7226 17.1172,-17.1172 27.7188,-40.7891 27.7188,-66.918 v 287.0976 c 0,52.2735 -42.3711,94.6407 -94.6407,94.6407"
           id="path60" />
        <path
           style="fill:#00c3ff;fill-opacity:1;fill-rule:nonzero;stroke:#00c3ff;stroke-opacity:1"
           d="m 2185.0195,1437.4414 h -94.6406 v -94.6406 c 0,-52.2695 42.3711,-94.6289 94.6406,-94.6289 l 32.5391,5.7383 c 1.4531,0.5312 2.8828,1.1015 4.3008,1.6914 l 4.1992,1.8984 c 1.3711,0.6719 2.7305,1.3594 4.0703,2.0898 1.3516,0.7305 2.6719,1.4805 3.9727,2.2813 1.2968,0.7891 2.5781,1.6094 3.8398,2.457 1.25,0.8516 2.4883,1.7305 3.6992,2.6328 l 10.3008,8.918 c 3.207,3.2109 6.1875,6.6602 8.918,10.3008 0.9101,1.2109 1.7812,2.4492 2.6289,3.6992 0.8633,1.2617 1.6719,2.543 2.4609,3.8399 0.8008,1.3007 1.5625,2.621 2.2891,3.9726 0.7226,1.3399 1.4101,2.6992 2.082,4.0781 0.6602,1.3711 1.3008,2.7696 1.8985,4.1914 0.5898,1.418 1.1601,2.8594 1.7031,4.3008 3.707,10.1367 5.7383,21.1094 5.7383,32.5391 0,26.1289 -10.6016,49.8008 -27.7188,66.918 -17.1211,17.1328 -40.793,27.7226 -66.9219,27.7226"
           id="path58-3" />
      </g>
      <g
         id="g5223"
         style="fill:#ffbb00;fill-opacity:1;stroke:#ffbb00;stroke-opacity:1"
         transform="translate(-1714.8398,-955.57031)">
        <path
           style="fill:#ffbb00;fill-opacity:1;fill-rule:nonzero;stroke:#ffbb00;stroke-opacity:1"
           d="m 1814.9805,1437.4414 c -52.2696,0 -94.6407,-42.3711 -94.6407,-94.6406 v -287.1016 c 0,-52.2695 42.3711,-94.62889 94.6407,-94.62889 26.1289,0 49.8008,10.58985 66.9179,27.71094 17.1211,17.11715 27.7227,40.78905 27.7227,66.91795 v 192.4727 h -94.2109 c -52.2696,0 -94.6289,42.3594 -94.6289,94.6289 0,52.1406 42.1289,94.3984 94.1992,94.6406"
           id="path44" />
        <path
           style="fill:#ffbb00;fill-opacity:1;fill-rule:nonzero;stroke:#ffbb00;stroke-width:1;stroke-miterlimit:4;stroke-dasharray:none;stroke-opacity:1"
           d="m 1815.1992,1437.4414 h -0.2187 c -52.0703,-0.2422 -94.1992,-42.5 -94.1992,-94.6406 0,-52.2695 42.3593,-94.6289 94.6289,-94.6289 h 94.2109 v 94.6289 c 0,52.1992 -42.25,94.5195 -94.4219,94.6406"
           id="path46-6" />
      </g>
      <path
         style="fill:#bb00ff;fill-opacity:1;fill-rule:nonzero;stroke:#bb00ff;stroke-width:1;stroke-miterlimit:4;stroke-dasharray:none;stroke-opacity:1"
         d="M 375.5391,481.87109 H 100.3594 c 52.1719,-0.1211 94.4219,-42.4414 94.4219,-94.6406 v -94.6289 h 275.3984 c -52.2695,0 -94.6406,42.3594 -94.6406,94.6289 v 94.6406"
         id="path48-7" />
      <path
         style="fill:#bb00ff;fill-opacity:0.5;fill-rule:nonzero;stroke:#bb00ff;stroke-width:1;stroke-miterlimit:4;stroke-dasharray:none;stroke-opacity:0.5"
         d="m 470.1797,481.87109 h -94.6406 v -94.6406 c 0,-52.2695 42.3711,-94.6289 94.6406,-94.6289 l 32.5391,5.7383 c 1.4531,0.5312 2.8828,1.1015 4.3008,1.6914 l 4.1992,1.8984 c 1.3711,0.6719 2.7305,1.3594 4.0703,2.0898 1.3516,0.7305 2.6719,1.4805 3.9727,2.2813 1.2968,0.7891 2.5781,1.6094 3.8398,2.457 1.25,0.8516 2.4883,1.7305 3.6992,2.6328 l 10.3008,8.918 c 3.207,3.2109 6.1875,6.6602 8.918,10.3008 0.9101,1.2109 1.7812,2.4492 2.6289,3.6992 0.8633,1.2617 1.6719,2.543 2.4609,3.8399 0.8008,1.3007 1.5625,2.621 2.2891,3.9726 0.7226,1.3399 1.4101,2.6992 2.082,4.0781 0.6602,1.3711 1.3008,2.7696 1.8985,4.1914 0.5898,1.418 1.1601,2.8594 1.7031,4.3008 3.707,10.1367 5.7383,21.1094 5.7383,32.5391 0,26.1289 -10.6016,49.8008 -27.7188,66.918 -17.1211,17.1328 -40.793,27.7226 -66.9219,27.7226"
         id="path58-3-5" />
      <path
         style="fill:#bb00ff;fill-opacity:0.5;fill-rule:nonzero;stroke:#bb00ff;stroke-opacity:0.501961"
         d="M 100.1407,481.87109 H 99.922 c -52.0703,-0.2422 -94.1992,-42.5 -94.1992,-94.6406 0,-52.2695 42.3593,-94.6289 94.6289,-94.6289 h 94.2109 v 94.6289 c 0,52.1992 -42.25,94.5195 -94.4219,94.6406"
         id="path46" />
    </g>
    <g
       aria-label="ICON-
ICONS"
       id="text38207"
       style="font-size:231.596px;line-height:0.85;font-family:Carlito;-inkscape-font-specification:Carlito;letter-spacing:0px;word-spacing:0px;stroke-width:3.6187">
      <path
         d="m 401.70527,171.53625 q 0,3.93713 -3.01075,6.71628 -2.77915,2.77915 -6.71628,2.77915 -4.40032,0 -6.94788,-2.77915 -2.54756,-2.77915 -2.54756,-6.71628 V 28.409925 q 0,-4.168727 2.77916,-6.716283 2.77915,-2.779152 6.94788,-2.779152 3.93713,0 6.71628,2.779152 2.77915,2.547556 2.77915,6.716283 z"
         style="font-weight:500;font-family:Quicksand;-inkscape-font-specification:'Quicksand Medium'"
         id="path862" />
      <path
         d="m 559.19028,29.567905 q 3.93714,2.084364 4.40033,6.253092 0.69479,4.168728 -2.08437,7.642668 -2.08436,3.010748 -5.3267,3.242344 -3.24235,0.231596 -6.48469,-1.389576 -7.64267,-4.63192 -16.44332,-7.179476 -8.80064,-2.779152 -18.52768,-2.779152 -13.66416,0 -25.01236,4.863516 -11.34821,4.63192 -19.68566,13.200972 -8.33746,8.569051 -12.96938,20.380447 -4.63192,11.811396 -4.63192,26.170347 0,15.285333 4.86352,27.328323 4.86351,12.043 13.20097,20.61205 8.56905,8.33745 19.68566,12.73778 11.3482,4.40032 24.54917,4.40032 9.49544,0 18.29609,-2.54755 8.80065,-2.54756 16.67491,-7.41108 3.24234,-1.62117 6.48469,-1.15798 3.24234,0.4632 5.5583,3.24235 2.77915,3.70553 2.08436,7.87426 -0.69478,3.93713 -4.40032,5.7899 -5.7899,3.47394 -13.20097,6.48469 -7.41107,2.77915 -15.51693,4.40032 -7.87427,1.62117 -15.98013,1.62117 -16.67491,0 -31.49705,-5.7899 -14.82214,-5.78989 -26.17035,-16.67491 -11.3482,-10.88501 -18.06449,-26.17034 -6.48468,-15.51694 -6.48468,-34.739403 0,-18.064487 6.25309,-33.118227 6.25309,-15.053739 17.3697,-26.170347 11.3482,-11.116608 26.17035,-17.369699 15.05373,-6.253092 32.42343,-6.253092 12.043,0 23.3912,3.242344 11.5798,3.242344 21.07523,9.263839 z"
         style="font-weight:500;font-family:Quicksand;-inkscape-font-specification:'Quicksand Medium'"
         id="path864" />
      <path
         d="m 737.98206,99.973087 q 0,17.832893 -5.7899,33.118223 -5.7899,15.05374 -16.21172,26.40195 -10.42182,11.3482 -24.78077,17.60129 -14.35895,6.25309 -31.26546,6.25309 -17.13811,0 -31.49706,-6.25309 -14.12735,-6.25309 -24.54917,-17.60129 -10.42182,-11.34821 -16.21172,-26.40195 -5.7899,-15.28533 -5.7899,-33.118223 0,-18.064487 5.7899,-33.118227 5.7899,-15.285335 16.21172,-26.401943 10.42182,-11.348204 24.54917,-17.601295 14.35895,-6.253092 31.49706,-6.253092 16.90651,0 31.26546,6.253092 14.35895,6.253091 24.78077,17.601295 10.42182,11.116608 16.21172,26.401943 5.7899,15.05374 5.7899,33.118227 z m -19.91726,0 q 0,-18.990871 -7.64267,-33.581419 -7.41107,-14.590547 -20.38044,-22.928003 -12.96938,-8.337456 -30.10748,-8.337456 -17.13811,0 -30.33908,8.337456 -12.96937,8.337456 -20.38044,22.928003 -7.41108,14.590548 -7.41108,33.581419 0,18.759273 7.41108,33.581423 7.41107,14.59054 20.38044,22.928 13.20097,8.33746 30.33908,8.33746 17.1381,0 30.10748,-8.33746 12.96937,-8.33746 20.38044,-22.928 7.64267,-14.82215 7.64267,-33.581423 z"
         style="font-weight:500;font-family:Quicksand;-inkscape-font-specification:'Quicksand Medium'"
         id="path866" />
      <path
         d="m 888.75104,18.91449 q 3.93713,0 6.25309,2.547556 2.31596,2.31596 2.31596,6.021495 V 171.30465 q 0,4.40033 -2.77915,7.17948 -2.77915,2.54755 -6.71628,2.54755 -2.08437,0 -4.16873,-0.69478 -2.08436,-0.92639 -3.24234,-2.31596 L 781.2905,46.937605 785.92242,44.158453 V 172.46263 q 0,3.70554 -2.54756,6.25309 -2.31596,2.31596 -6.25309,2.31596 -3.70553,0 -6.02149,-2.31596 -2.31596,-2.54755 -2.31596,-6.25309 V 28.178329 q 0,-4.168727 2.54755,-6.716283 2.77915,-2.547556 6.48469,-2.547556 2.08436,0 4.16873,0.926384 2.31596,0.694788 3.47394,2.31596 l 97.73351,129.230566 -3.01075,3.70553 V 27.483541 q 0,-3.705535 2.31596,-6.021495 2.54756,-2.547556 6.25309,-2.547556 z"
         style="font-weight:500;font-family:Quicksand;-inkscape-font-specification:'Quicksand Medium'"
         id="path868" />
      <path
         d="m 969.47043,118.26917 q -3.93713,0 -6.71628,-2.54756 -2.54756,-2.77915 -2.54756,-6.94787 0,-3.93714 2.54756,-6.48469 2.77915,-2.547559 6.71628,-2.547559 h 46.78237 q 3.9372,0 6.4847,2.779149 2.7792,2.77916 2.7792,6.71629 0,3.93713 -2.7792,6.48468 -2.5475,2.54756 -6.4847,2.54756 z"
         style="font-weight:500;font-family:Quicksand;-inkscape-font-specification:'Quicksand Medium'"
         id="path870" />
      <path
         d="m 401.70527,365.9258 q 0,3.93713 -3.01075,6.71628 -2.77915,2.77916 -6.71628,2.77916 -4.40032,0 -6.94788,-2.77916 -2.54756,-2.77915 -2.54756,-6.71628 V 222.79948 q 0,-4.16873 2.77916,-6.71629 2.77915,-2.77915 6.94788,-2.77915 3.93713,0 6.71628,2.77915 2.77915,2.54756 2.77915,6.71629 z"
         style="font-weight:500;font-family:Quicksand;-inkscape-font-specification:'Quicksand Medium'"
         id="path872" />
      <path
         d="m 559.19028,223.95746 q 3.93714,2.08436 4.40033,6.25309 0.69479,4.16873 -2.08437,7.64267 -2.08436,3.01074 -5.3267,3.24234 -3.24235,0.2316 -6.48469,-1.38958 -7.64267,-4.63192 -16.44332,-7.17947 -8.80064,-2.77915 -18.52768,-2.77915 -13.66416,0 -25.01236,4.86351 -11.34821,4.63192 -19.68566,13.20097 -8.33746,8.56906 -12.96938,20.38045 -4.63192,11.8114 -4.63192,26.17035 0,15.28533 4.86352,27.32833 4.86351,12.04299 13.20097,20.61204 8.56905,8.33745 19.68566,12.73778 11.3482,4.40032 24.54917,4.40032 9.49544,0 18.29609,-2.54755 8.80065,-2.54756 16.67491,-7.41108 3.24234,-1.62117 6.48469,-1.15797 3.24234,0.46319 5.5583,3.24234 2.77915,3.70553 2.08436,7.87426 -0.69478,3.93713 -4.40032,5.7899 -5.7899,3.47394 -13.20097,6.48469 -7.41107,2.77915 -15.51693,4.40032 -7.87427,1.62118 -15.98013,1.62118 -16.67491,0 -31.49705,-5.7899 -14.82214,-5.7899 -26.17035,-16.67492 -11.3482,-10.88501 -18.06449,-26.17034 -6.48468,-15.51693 -6.48468,-34.7394 0,-18.06449 6.25309,-33.11823 6.25309,-15.05374 17.3697,-26.17035 11.3482,-11.1166 26.17035,-17.3697 15.05373,-6.25309 32.42343,-6.25309 12.043,0 23.3912,3.24235 11.5798,3.24234 21.07523,9.26384 z"
         style="font-weight:500;font-family:Quicksand;-inkscape-font-specification:'Quicksand Medium'"
         id="path874" />
      <path
         d="m 737.98206,294.36264 q 0,17.83289 -5.7899,33.11823 -5.7899,15.05374 -16.21172,26.40194 -10.42182,11.3482 -24.78077,17.60129 -14.35895,6.2531 -31.26546,6.2531 -17.13811,0 -31.49706,-6.2531 -14.12735,-6.25309 -24.54917,-17.60129 -10.42182,-11.3482 -16.21172,-26.40194 -5.7899,-15.28534 -5.7899,-33.11823 0,-18.06449 5.7899,-33.11823 5.7899,-15.28533 16.21172,-26.40194 10.42182,-11.34821 24.54917,-17.6013 14.35895,-6.25309 31.49706,-6.25309 16.90651,0 31.26546,6.25309 14.35895,6.25309 24.78077,17.6013 10.42182,11.11661 16.21172,26.40194 5.7899,15.05374 5.7899,33.11823 z m -19.91726,0 q 0,-18.99087 -7.64267,-33.58142 -7.41107,-14.59055 -20.38044,-22.928 -12.96938,-8.33746 -30.10748,-8.33746 -17.13811,0 -30.33908,8.33746 -12.96937,8.33745 -20.38044,22.928 -7.41108,14.59055 -7.41108,33.58142 0,18.75927 7.41108,33.58142 7.41107,14.59055 20.38044,22.928 13.20097,8.33746 30.33908,8.33746 17.1381,0 30.10748,-8.33746 12.96937,-8.33745 20.38044,-22.928 7.64267,-14.82215 7.64267,-33.58142 z"
         style="font-weight:500;font-family:Quicksand;-inkscape-font-specification:'Quicksand Medium'"
         id="path876" />
      <path
         d="m 888.75104,213.30404 q 3.93713,0 6.25309,2.54756 2.31596,2.31596 2.31596,6.02149 V 365.6942 q 0,4.40033 -2.77915,7.17948 -2.77915,2.54756 -6.71628,2.54756 -2.08437,0 -4.16873,-0.69479 -2.08436,-0.92639 -3.24234,-2.31596 L 781.2905,241.32716 785.92242,238.548 v 128.30418 q 0,3.70554 -2.54756,6.2531 -2.31596,2.31596 -6.25309,2.31596 -3.70553,0 -6.02149,-2.31596 -2.31596,-2.54756 -2.31596,-6.2531 v -144.2843 q 0,-4.16873 2.54755,-6.71628 2.77915,-2.54756 6.48469,-2.54756 2.08436,0 4.16873,0.92639 2.31596,0.69478 3.47394,2.31595 l 97.73351,129.23057 -3.01075,3.70553 V 221.87309 q 0,-3.70553 2.31596,-6.02149 2.54756,-2.54756 6.25309,-2.54756 z"
         style="font-weight:500;font-family:Quicksand;-inkscape-font-specification:'Quicksand Medium'"
         id="path878" />
      <path
         d="m 985.09484,377.7372 q -17.1381,0 -30.10748,-5.09512 -12.96937,-5.09511 -25.01237,-16.21172 -1.62117,-1.62117 -2.77915,-3.47394 -0.92638,-2.08436 -0.92638,-4.40032 0,-3.70553 2.54755,-6.48469 2.77916,-3.01074 6.71629,-3.01074 3.24234,0 5.7899,2.54755 9.03224,8.80065 19.45406,13.43257 10.65342,4.63192 23.85439,4.63192 10.19022,0 18.29605,-3.24235 8.3375,-3.24234 13.201,-9.03224 4.8635,-5.7899 4.8635,-13.43257 -0.2316,-9.26384 -5.5583,-15.28533 -5.0951,-6.0215 -14.3589,-9.95863 -9.03228,-4.16873 -21.07527,-6.94788 -10.65342,-2.54756 -19.68566,-6.25309 -8.80065,-3.70554 -15.28534,-9.03225 -6.48468,-5.5583 -10.19022,-13.20097 -3.47394,-7.87426 -3.47394,-18.29608 0,-13.20097 6.94788,-23.1596 6.94788,-9.95863 19.22247,-15.28534 12.27459,-5.5583 28.25471,-5.5583 14.12735,0 26.63357,4.63192 12.7377,4.63192 20.3804,12.73778 4.6319,4.40032 4.6319,8.56905 0,3.47394 -3.0107,6.48469 -2.7792,2.77915 -6.4847,2.77915 -2.5476,0 -4.6319,-1.85277 -3.9372,-4.40032 -9.9586,-7.87426 -6.0215,-3.47394 -13.201,-5.5583 -7.1795,-2.08437 -14.35897,-2.08437 -10.65342,0 -18.75928,3.24235 -8.10586,3.01074 -12.73778,8.80064 -4.40032,5.55831 -4.40032,13.43257 0,8.80065 5.09511,14.59055 5.09511,5.5583 13.66417,9.26384 8.56905,3.47394 18.99087,6.25309 11.3482,2.77915 20.8436,6.48469 9.7271,3.47394 16.6749,8.80065 6.9479,5.3267 10.6535,13.66416 3.9371,8.10586 3.9371,20.14885 0,12.73778 -7.1795,22.69641 -7.1795,9.95863 -19.6856,15.74853 -12.2746,5.5583 -27.79156,5.7899 z"
         style="font-weight:500;font-family:Quicksand;-inkscape-font-specification:'Quicksand Medium'"
         id="path880" />
    </g>
  </g>
</svg>
