<?xml version="1.0" encoding="UTF-8" standalone="no"?>
<svg
   width="512"
   height="512"
   viewBox="0 0 383.99999 383.99999"
   version="1.2"
   id="svg67"
   sodipodi:docname="icon-icons_new.svg"
   inkscape:export-filename="/home/carlos/Descargas/ICON-ICONS_new.png"
   inkscape:export-xdpi="96"
   inkscape:export-ydpi="96"
   inkscape:version="1.1.2 (0a00cf5339, 2022-02-04)"
   xmlns:inkscape="http://www.inkscape.org/namespaces/inkscape"
   xmlns:sodipodi="http://sodipodi.sourceforge.net/DTD/sodipodi-0.dtd"
   xmlns="http://www.w3.org/2000/svg"
   xmlns:svg="http://www.w3.org/2000/svg">
  <defs
     id="defs71" />
  <sodipodi:namedview
     id="namedview69"
     pagecolor="#ffffff"
     bordercolor="#666666"
     borderopacity="1.0"
     inkscape:pageshadow="2"
     inkscape:pageopacity="0.0"
     inkscape:pagecheckerboard="0"
     inkscape:document-units="pt"
     showgrid="false"
     fit-margin-top="5"
     fit-margin-bottom="5"
     fit-margin-right="5"
     fit-margin-left="5"
     height="512px"
     units="px"
     inkscape:zoom="1"
     inkscape:cx="334.5"
     inkscape:cy="289.5"
     inkscape:window-width="1850"
     inkscape:window-height="1016"
     inkscape:window-x="70"
     inkscape:window-y="27"
     inkscape:window-maximized="1"
     inkscape:current-layer="svg67" />
  <g
     id="g36764"
     transform="matrix(0.48400838,0,0,0.48400838,56.325898,3.8069226)">
    <path
       style="fill:#26429e;fill-opacity:1;fill-rule:nonzero;stroke:none"
       d="m 507.0196,300.03129 c -1.418,-0.5899 -2.8477,-1.1602 -4.3008,-1.6914 1.4609,0.5312 2.8828,1.0898 4.3008,1.6914"
       id="path50" />
    <path
       style="fill:#26429e;fill-opacity:1;fill-rule:nonzero;stroke:none"
       d="m 515.2891,304.01949 c -1.3398,-0.7304 -2.6992,-1.4179 -4.0703,-2.0898 1.3711,0.6602 2.7305,1.3594 4.0703,2.0898"
       id="path52" />
    <path
       style="fill:#26429e;fill-opacity:1;fill-rule:nonzero;stroke:none"
       d="m 555.4805,346.19919 c -0.6719,-1.3789 -1.3594,-2.7382 -2.082,-4.0781 0.7226,1.3399 1.4219,2.6992 2.082,4.0781"
       id="path54" />
    <path
       style="fill:#26429e;fill-opacity:1;fill-rule:nonzero;stroke:none"
       d="m 559.0821,354.69139 c -0.543,-1.4414 -1.1133,-2.8828 -1.7031,-4.3008 0.6015,1.418 1.1601,2.8477 1.7031,4.3008"
       id="path56" />
    <path
       style="fill:#00ffbb;fill-opacity:1;fill-rule:nonzero;stroke:none"
       d="m 470.1797,194.76949 c -52.2695,0 -94.6406,-42.371 -94.6406,-94.6406 0,-52.2695 42.3711,-94.62889 94.6406,-94.62889 52.2696,0 94.6407,42.35939 94.6407,94.62889 0,52.2696 -42.3711,94.6406 -94.6407,94.6406"
       id="path62" />
    <path
       style="fill:#ff0044;fill-opacity:1;fill-rule:nonzero;stroke:none;stroke-opacity:0.5"
       d="m 105.461,768.96879 c -52.2695,0 -94.6406,-42.3672 -94.6406,-94.6407 0,-52.2695 42.3711,-94.6289 94.6406,-94.6289 52.2695,0 94.6289,42.3594 94.6289,94.6289 0,52.2735 -42.3594,94.6407 -94.6289,94.6407"
       id="path64" />
    <g
       id="g5299"
       style="fill:#00c3ff;fill-opacity:1;stroke:#00c3ff;stroke-opacity:1"
       transform="translate(-1714.8398,-955.57031)">
      <path
         style="fill:#00c3ff;fill-opacity:1;fill-rule:nonzero;stroke:#00c3ff;stroke-width:0;stroke-miterlimit:0;stroke-dasharray:none;stroke-opacity:1"
         d="m 2185.0195,1724.5391 c -52.2695,0 -94.6406,-42.3672 -94.6406,-94.6407 v -192.457 h 94.6406 c 26.1289,0 49.8008,-10.5898 66.9219,-27.7226 17.1172,-17.1172 27.7188,-40.7891 27.7188,-66.918 v 287.0976 c 0,52.2735 -42.3711,94.6407 -94.6407,94.6407"
         id="path60" />
      <path
         style="fill:#00c3ff;fill-opacity:1;fill-rule:nonzero;stroke:#00c3ff;stroke-opacity:1"
         d="m 2185.0195,1437.4414 h -94.6406 v -94.6406 c 0,-52.2695 42.3711,-94.6289 94.6406,-94.6289 l 32.5391,5.7383 c 1.4531,0.5312 2.8828,1.1015 4.3008,1.6914 l 4.1992,1.8984 c 1.3711,0.6719 2.7305,1.3594 4.0703,2.0898 1.3516,0.7305 2.6719,1.4805 3.9727,2.2813 1.2968,0.7891 2.5781,1.6094 3.8398,2.457 1.25,0.8516 2.4883,1.7305 3.6992,2.6328 l 10.3008,8.918 c 3.207,3.2109 6.1875,6.6602 8.918,10.3008 0.9101,1.2109 1.7812,2.4492 2.6289,3.6992 0.8633,1.2617 1.6719,2.543 2.4609,3.8399 0.8008,1.3007 1.5625,2.621 2.2891,3.9726 0.7226,1.3399 1.4101,2.6992 2.082,4.0781 0.6602,1.3711 1.3008,2.7696 1.8985,4.1914 0.5898,1.418 1.1601,2.8594 1.7031,4.3008 3.707,10.1367 5.7383,21.1094 5.7383,32.5391 0,26.1289 -10.6016,49.8008 -27.7188,66.918 -17.1211,17.1328 -40.793,27.7226 -66.9219,27.7226"
         id="path58-3" />
    </g>
    <g
       id="g5223"
       style="fill:#ffbb00;fill-opacity:1;stroke:#ffbb00;stroke-opacity:1"
       transform="translate(-1714.8398,-955.57031)">
      <path
         style="fill:#ffbb00;fill-opacity:1;fill-rule:nonzero;stroke:#ffbb00;stroke-opacity:1"
         d="m 1814.9805,1437.4414 c -52.2696,0 -94.6407,-42.3711 -94.6407,-94.6406 v -287.1016 c 0,-52.2695 42.3711,-94.62889 94.6407,-94.62889 26.1289,0 49.8008,10.58985 66.9179,27.71094 17.1211,17.11715 27.7227,40.78905 27.7227,66.91795 v 192.4727 h -94.2109 c -52.2696,0 -94.6289,42.3594 -94.6289,94.6289 0,52.1406 42.1289,94.3984 94.1992,94.6406"
         id="path44" />
      <path
         style="fill:#ffbb00;fill-opacity:1;fill-rule:nonzero;stroke:#ffbb00;stroke-width:1;stroke-miterlimit:4;stroke-dasharray:none;stroke-opacity:1"
         d="m 1815.1992,1437.4414 h -0.2187 c -52.0703,-0.2422 -94.1992,-42.5 -94.1992,-94.6406 0,-52.2695 42.3593,-94.6289 94.6289,-94.6289 h 94.2109 v 94.6289 c 0,52.1992 -42.25,94.5195 -94.4219,94.6406"
         id="path46-6" />
    </g>
    <path
       style="fill:#bb00ff;fill-opacity:1;fill-rule:nonzero;stroke:#bb00ff;stroke-width:1;stroke-miterlimit:4;stroke-dasharray:none;stroke-opacity:1"
       d="M 375.5391,481.87109 H 100.3594 c 52.1719,-0.1211 94.4219,-42.4414 94.4219,-94.6406 v -94.6289 h 275.3984 c -52.2695,0 -94.6406,42.3594 -94.6406,94.6289 v 94.6406"
       id="path48-7" />
    <path
       style="fill:#bb00ff;fill-opacity:0.5;fill-rule:nonzero;stroke:#bb00ff;stroke-width:1;stroke-miterlimit:4;stroke-dasharray:none;stroke-opacity:0.5"
       d="m 470.1797,481.87109 h -94.6406 v -94.6406 c 0,-52.2695 42.3711,-94.6289 94.6406,-94.6289 l 32.5391,5.7383 c 1.4531,0.5312 2.8828,1.1015 4.3008,1.6914 l 4.1992,1.8984 c 1.3711,0.6719 2.7305,1.3594 4.0703,2.0898 1.3516,0.7305 2.6719,1.4805 3.9727,2.2813 1.2968,0.7891 2.5781,1.6094 3.8398,2.457 1.25,0.8516 2.4883,1.7305 3.6992,2.6328 l 10.3008,8.918 c 3.207,3.2109 6.1875,6.6602 8.918,10.3008 0.9101,1.2109 1.7812,2.4492 2.6289,3.6992 0.8633,1.2617 1.6719,2.543 2.4609,3.8399 0.8008,1.3007 1.5625,2.621 2.2891,3.9726 0.7226,1.3399 1.4101,2.6992 2.082,4.0781 0.6602,1.3711 1.3008,2.7696 1.8985,4.1914 0.5898,1.418 1.1601,2.8594 1.7031,4.3008 3.707,10.1367 5.7383,21.1094 5.7383,32.5391 0,26.1289 -10.6016,49.8008 -27.7188,66.918 -17.1211,17.1328 -40.793,27.7226 -66.9219,27.7226"
       id="path58-3-5" />
    <path
       style="fill:#bb00ff;fill-opacity:0.5;fill-rule:nonzero;stroke:#bb00ff;stroke-opacity:0.501961"
       d="M 100.1407,481.87109 H 99.922 c -52.0703,-0.2422 -94.1992,-42.5 -94.1992,-94.6406 0,-52.2695 42.3593,-94.6289 94.6289,-94.6289 h 94.2109 v 94.6289 c 0,52.1992 -42.25,94.5195 -94.4219,94.6406"
       id="path46" />
  </g>
</svg>
