<svg fill="none" height="26" viewBox="0 0 210 26" width="210" xmlns="http://www.w3.org/2000/svg">
    <defs>
        <linearGradient id="logoGradient" x1="0" y1="0" x2="210" y2="0" gradientUnits="userSpaceOnUse">
            <stop offset="0%" style="stop-color:#2f25b8;stop-opacity:1" />
            <stop offset="100%" style="stop-color:#0c5bba;stop-opacity:1" />
        </linearGradient>
    </defs>
    <g fill="url(#logoGradient)"><path d="m94.3676 11.5286c.1447-.7885.484-1.4123 1.0178-1.87119.5337-.4581 1.1987-.68784 1.995-.68784.7961 0 1.4608.22974 1.995.68784.5336.45889.8726 1.08269 1.0176 1.87119zm-25.2344 4.0304c-.5789.6328-1.312.9495-2.1982.9495-.9052 0-1.647-.3167-2.2257-.9495-.5795-.6325-.8688-1.5083-.8688-2.6272 0-1.1006.2893-1.9626.8688-2.5866.5787-.62314 1.3205-.93514 2.2257-.93514.9046 0 1.6421.312 2.2118.93514.5703.624.8553 1.486.8553 2.5866 0 1.1189-.2899 1.9947-.8689 2.6272zm-30.9573 0c-.5795.6328-1.3213.9495-2.226.9495-.9049 0-1.6467-.3167-2.2256-.9495-.5793-.6325-.8683-1.5083-.8683-2.6272 0-1.1006.289-1.9626.8683-2.5866.5789-.62314 1.3207-.93514 2.2256-.93514.9047 0 1.6465.312 2.226.93514.5787.624.8686 1.486.8686 2.5866 0 1.1189-.2899 1.9947-.8686 2.6272zm89.5691 1.0595c-.471 0-.846-.1516-1.127-.4539-.281-.3027-.42-.7198-.42-1.2519v-4.95237h5.149l-1.051-3.90688h-4.098v-3.87937h-5.157v3.87937h-4.189c-1.094-.53183-2.354-.79816-3.781-.79816-1.628 0-3.085.32603-4.369.97699-1.285.65124-2.285 1.55918-2.999 2.72354-.332.54036-.583 1.11648-.761 1.72558-.174-.6611-.427-1.27381-.762-1.83536-.697-1.16463-1.643-2.05414-2.837-2.66878-1.194-.61465-2.524-.92197-3.9897-.92197-1.5382 0-2.9227.33016-4.1528.99075-1.0078.54063-1.8338 1.2535-2.4833 2.13283l1.1726-2.87569h-4.9128l-3.7185 9.10662-3.5286-9.10662h-4.6522v-5.50264263h-5.1571v6.79576263c-.9592-1.02734-2.3163-1.54101-4.0713-1.54101-1.3395 0-2.5609.31227-3.6643.93572-1.1041.62373-1.977 1.51791-2.6195 2.68254-.2755.49964-.4883 1.03615-.6457 1.60515v-10.47816263h-5.1571v5.25612263c-1.0618.00606-2.0069.17471-2.8331.5079-.8414.33951-1.5246.84851-2.0493 1.52698v-1.78836h-4.9127v5.24262c-.1765-.6331-.4316-1.23036-.7703-1.78998-.7058-1.16436-1.6924-2.0723-2.9589-2.72354-1.2667-.65096-2.696-.97699-4.2885-.97699-1.5924 0-3.0174.32603-4.2749.97699-1.2011.62208-2.1513 1.48489-2.8573 2.5835l2.4504-7.65969h-5.1299l-3.9899 12.40821-3.8271-12.40821h-4.94l-4.01705 12.29841-3.82709-12.29841h-5.53706l6.16134 19.25931h5.75416l3.8-11.72096 3.6371 11.72096h5.7542l2.553-7.9803c-.0092.164-.0152.3291-.0152.4967 0 1.4857.3569 2.8157 1.0721 3.9894.7147 1.174 1.7051 2.0907 2.9719 2.7513 1.2664.6603 2.6873.9902 4.2613.9902 1.5925 0 3.0218-.3299 4.2885-.9902 1.2665-.6606 2.2531-1.5773 2.9589-2.7513.3387-.5635.5938-1.1641.7703-1.7994v5.2936h5.157v-6.8511c0-1.2469.3122-2.1733.9364-2.7786.6243-.6053 1.4883-.90791 2.5921-.90791.2943 0 .6656.02613 1.1096.07621v10.4614h5.1571v-5.0256c.1574.5709.3702 1.1104.6457 1.6136.6425 1.1743 1.5154 2.0773 2.6195 2.7104 1.1034.6328 2.3248.9489 3.6643.9489 1.9176 0 3.3561-.5775 4.3154-1.7333v1.486h4.913v-13.33461l5.4122 13.33461h5.32l3.5407-8.6843c-.0551.3885-.0858.7882-.0858 1.2007 0 1.4857.3572 2.8157 1.0721 3.9894.7147 1.174 1.7236 2.0907 3.0264 2.7513 1.3029.6603 2.8136.9902 4.5328.9902 2.7499 0 4.8399-.8067 6.2699-2.4212l-2.714-2.8611c-.525.4587-1.045.7888-1.5609.9905-.5157.202-1.1264.3024-1.8321.3024-.941 0-1.7236-.2064-2.3478-.6191-.6243-.4127-1.045-1.0039-1.2622-1.7743h10.291c.153.9536.471 1.8351.963 2.6413.714 1.174 1.714 2.0907 2.999 2.7513 1.284.6603 2.741.9902 4.369.9902 1.665 0 3.104-.3618 4.316-1.0865 1.212-.7244 2.072-1.7287 2.579-3.0127l-3.99-2.0635c-.67 1.3391-1.647 2.0085-2.931 2.0085-.924 0-1.688-.3167-2.294-.9495-.607-.6325-.909-1.5083-.909-2.6272 0-1.1006.302-1.9626.909-2.5866.606-.62314 1.37-.93514 2.294-.93514 1.284 0 2.261.66964 2.931 2.00844l2.819-1.45817h2.246v5.00737c0 1.8894.515 3.311 1.547 4.2646 1.031.9539 2.505 1.4304 4.424 1.4304.706 0 1.37-.0732 1.995-.2201.624-.1464 1.153-.3574 1.588-.6325l-1.276-3.6593c-.452.312-.977.4677-1.574.4677z"/><path d="m203.92 15.5587c-.579.6328-1.321.9492-2.226.9492s-1.647-.3164-2.225-.9492c-.58-.6328-.869-1.5082-.869-2.6275 0-1.1005.289-1.9625.869-2.5862.578-.62348 1.32-.93548 2.225-.93548s1.647.312 2.226.93548c.579.6237.869 1.4857.869 2.5862 0 1.1193-.29 1.9947-.869 2.6275zm-16.255-.9217c-.607.569-1.371.8529-2.294.8529-.922 0-1.692-.2839-2.307-.8529-.615-.5681-.923-1.3022-.923-2.201 0-.8983.303-1.6277.909-2.1873.607-.55937 1.38-.83918 2.321-.83918s1.71.27981 2.307.83918c.597.5596.896 1.289.896 2.1873 0 .8988-.303 1.6329-.909 2.201zm-16.399.9217c-.58.6328-1.322.9492-2.226.9492-.905 0-1.647-.3164-2.226-.9492s-.868-1.5082-.868-2.6275c0-1.1005.289-1.9625.868-2.5862.579-.62348 1.321-.93548 2.226-.93548.904 0 1.646.312 2.226.93548.578.6237.868 1.4857.868 2.5862 0 1.1193-.29 1.9947-.868 2.6275zm-31.037 0c-.579.6328-1.321.9492-2.226.9492-.904 0-1.647-.3164-2.225-.9492-.579-.6328-.869-1.5082-.869-2.6275 0-1.1005.29-1.9625.869-2.5862.578-.62348 1.321-.93548 2.225-.93548.905 0 1.647.312 2.226.93548.579.6237.869 1.4857.869 2.5862 0 1.1193-.29 1.9947-.869 2.6275zm68.712-6.60314c-.705-1.16436-1.692-2.0723-2.958-2.72354-1.267-.65124-2.696-.97699-4.289-.97699-1.592 0-3.017.32575-4.275.97699-1.257.65124-2.243 1.56358-2.958 2.73729-.346.56733-.606 1.16989-.784 1.80539v-5.27205h-4.913v1.81587c-.977-1.37566-2.515-2.06349-4.614-2.06349-1.303 0-2.507.29851-3.61.89418-1.104.59648-1.981 1.44004-2.633 2.53121-.394.6606-.667 1.38088-.822 2.15838-.177-.6683-.443-1.29611-.798-1.88324-.706-1.16436-1.692-2.0723-2.959-2.72354-1.266-.65124-2.696-.97699-4.288-.97699-1.593 0-3.018.32575-4.275.97699-1.258.65124-2.244 1.56358-2.958 2.73729-.38.62318-.656 1.28869-.834 1.99469v-10.964h-5.157v5.2564c-1.062.00578-2.007.17444-2.833.50762-.842.33979-1.525.84851-2.049 1.52699v-1.78836h-4.913v5.24295c-.177-.6334-.432-1.2307-.77-1.79004-.706-1.16436-1.693-2.0723-2.959-2.72354-1.267-.65124-2.696-.97699-4.289-.97699-1.592 0-3.017.32575-4.274.97699-1.258.65124-2.244 1.56358-2.959 2.73729-.715 1.17399-1.072 2.49459-1.072 3.96189 0 1.486.357 2.816 1.072 3.9894.715 1.1743 1.705 2.091 2.972 2.7514 1.266.6605 2.687.9904 4.261.9904 1.593 0 3.022-.3299 4.289-.9904 1.266-.6604 2.253-1.5771 2.959-2.7514.338-.5634.593-1.1638.77-1.7993v5.2935h5.157v-6.8508c0-1.2469.312-2.1732.936-2.7788.625-.6053 1.489-.90768 2.592-.90768.295 0 .666.02587 1.11.07622v10.46106h5.157v-5.496c.178.7109.454 1.3792.834 2.0018.714 1.1743 1.705 2.091 2.971 2.7514 1.267.6605 2.688.9904 4.262.9904 1.592 0 3.022-.3299 4.288-.9904 1.267-.6604 2.253-1.5771 2.959-2.7514.441-.7346.745-1.5305.911-2.3876.162.6007.397 1.1636.709 1.686.652 1.0915 1.529 1.9356 2.633 2.5315 1.103.5963 2.307.8942 3.61.8942 1.918 0 3.374-.5868 4.37-1.7611v.4952c0 1.1927-.317 2.0913-.95 2.6963-.634.6053-1.629.9082-2.986.9082-.887 0-1.787-.1425-2.7-.4267-.915-.2845-1.67-.6738-2.267-1.1693l-1.873 3.6595c.887.6416 1.963 1.1278 3.23 1.458 1.267.3304 2.624.4952 4.071.4952 2.787 0 4.922-.6925 6.406-2.0773 1.484-1.385 2.226-3.4625 2.226-6.2317v-2.5821c.178.6402.438 1.2447.784 1.8117.715 1.1743 1.705 2.091 2.972 2.7514 1.266.6605 2.687.9904 4.261.9904 1.593 0 3.022-.3299 4.289-.9904 1.266-.6604 2.253-1.5771 2.958-2.7514.706-1.1734 1.059-2.5034 1.059-3.9894 0-1.4857-.353-2.8107-1.059-3.97564z"/></g></svg>